<svg xmlns="http://www.w3.org/2000/svg" width="840" height="230" viewBox="0 0 840 230" fill="none">
  <style>
    .title { font-family: -apple-system, BlinkMacSystemFont, "Segoe UI", Helvetica, Arial, sans-serif; font-size: 15px; font-weight: 600; fill: #ffffff; letter-spacing: 0.5px; }
    .action { font-family: -apple-system, BlinkMacSystemFont, "Segoe UI", Helvetica, Arial, sans-serif; font-size: 13px; font-weight: 600; fill: #ffffff; }
    .badge { font-family: "SFMono-Regular", Consolas, "Liberation Mono", Menlo, monospace; font-size: 10.5px; fill: #58a6ff; font-weight: 500; }
    .time { font-family: -apple-system, BlinkMacSystemFont, "Segoe UI", Helvetica, Arial, sans-serif; font-size: 10px; font-weight: 600; fill: #8b949e; }
    .detail { font-family: -apple-system, BlinkMacSystemFont, "Segoe UI", Helvetica, Arial, sans-serif; font-size: 12px; font-style: italic; fill: #c9d1d9; }
  </style>
  <rect x="0.5" y="0.5" width="839" height="229" rx="6" fill="#000000" stroke="#ffffff" stroke-width="1" />

  <!-- Header -->
  <svg x="326" y="15" width="16" height="16" viewBox="0 0 24 24"><path d="M13.09 23.549a1.54 1.54 0 0 1-2.18 0L.451 13.089a1.54 1.54 0 0 1 0-2.179l7.191-7.19 2.733 2.733a1.85 1.85 0 0 0 .964 2.326v6.66a1.849 1.849 0 1 0 1.54 0V8.957l2.508 2.508a1.85 1.85 0 1 0 1.09-1.09l-2.634-2.634a1.85 1.85 0 0 0-2.378-2.377L8.73 2.63 10.91.451a1.54 1.54 0 0 1 2.179 0l10.459 10.46a1.54 1.54 0 0 1 0 2.179z" fill="#ffffff"/></svg>
  <text x="424" y="29" text-anchor="middle" class="title">Recent Git Activity</text>
  <line x1="20" y1="45" x2="820" y2="45" stroke="#21262d" stroke-width="1" />

  <!-- Middle Vertical Divider -->
  <line x1="420" y1="45" x2="420" y2="220" stroke="#21262d" stroke-width="1" />

  <!-- Horizontal Row Dividers -->
  <line x1="25" y1="103" x2="405" y2="103" stroke="#161b22" stroke-width="1" />
  <line x1="435" y1="103" x2="815" y2="103" stroke="#161b22" stroke-width="1" />
  <line x1="25" y1="161" x2="405" y2="161" stroke="#161b22" stroke-width="1" />
  <line x1="435" y1="161" x2="815" y2="161" stroke="#161b22" stroke-width="1" />
  <!-- Item Col 0 Row 0 -->
  <svg x="35" y="61" width="14" height="14" viewBox="0 0 16 16"><path fill-rule="evenodd" d="M10.5 7.75a2.5 2.5 0 11-5 0 2.5 2.5 0 015 0zm1.43.75a4.002 4.002 0 01-7.86 0H.75a.75.75 0 110-1.5h3.32a4.002 4.002 0 017.86 0h3.32a.75.75 0 110 1.5h-3.32z" fill="#ffffff"/></svg>
  <text x="57" y="73" class="action">Push</text>
  <rect x="97.0" y="62" width="330.5" height="16" rx="4" fill="#161b22" stroke="#30363d" stroke-width="1" />
  <text x="262.2" y="74" text-anchor="middle" class="badge">TrackerCredito:feature/vercel-supabase-deployment</text>
  <text x="405" y="73" text-anchor="end" class="time">19H AGO</text>
  <text x="57" y="91" class="detail">&quot;feat(database): auto-detect any postgres ur...&quot;</text>
  <!-- Item Col 0 Row 1 -->
  <svg x="35" y="119" width="14" height="14" viewBox="0 0 16 16"><path fill-rule="evenodd" d="M10.5 7.75a2.5 2.5 0 11-5 0 2.5 2.5 0 015 0zm1.43.75a4.002 4.002 0 01-7.86 0H.75a.75.75 0 110-1.5h3.32a4.002 4.002 0 017.86 0h3.32a.75.75 0 110 1.5h-3.32z" fill="#ffffff"/></svg>
  <text x="57" y="131" class="action">Push</text>
  <rect x="97.0" y="120" width="330.5" height="16" rx="4" fill="#161b22" stroke="#30363d" stroke-width="1" />
  <text x="262.2" y="132" text-anchor="middle" class="badge">TrackerCredito:feature/vercel-supabase-deployment</text>
  <text x="405" y="131" text-anchor="end" class="time">19H AGO</text>
  <text x="57" y="149" class="detail">&quot;feat(database): support POSTGRES_URL from v...&quot;</text>
  <!-- Item Col 0 Row 2 -->
  <svg x="35" y="177" width="14" height="14" viewBox="0 0 16 16"><path fill-rule="evenodd" d="M10.5 7.75a2.5 2.5 0 11-5 0 2.5 2.5 0 015 0zm1.43.75a4.002 4.002 0 01-7.86 0H.75a.75.75 0 110-1.5h3.32a4.002 4.002 0 017.86 0h3.32a.75.75 0 110 1.5h-3.32z" fill="#ffffff"/></svg>
  <text x="57" y="189" class="action">Push</text>
  <rect x="97.0" y="178" width="330.5" height="16" rx="4" fill="#161b22" stroke="#30363d" stroke-width="1" />
  <text x="262.2" y="190" text-anchor="middle" class="badge">TrackerCredito:feature/vercel-supabase-deployment</text>
  <text x="405" y="189" text-anchor="end" class="time">19H AGO</text>
  <text x="57" y="207" class="detail">&quot;feat(supabase): add initial migration in su...&quot;</text>
  <!-- Item Col 1 Row 0 -->
  <svg x="445" y="61" width="14" height="14" viewBox="0 0 16 16"><path fill-rule="evenodd" d="M11.75 2.5a.75.75 0 100 1.5.75.75 0 000-1.5zm-2.25.75a2.25 2.25 0 113 2.122V6A2.5 2.5 0 0110 8.5H6a1 1 0 00-1 1v1.128a2.251 2.251 0 11-1.5 0V5.372a2.25 2.25 0 111.5 0v1.836A2.492 2.492 0 016 7h4a1 1 0 001-1v-.628A2.25 2.25 0 019.5 3.25zM4.25 12a.75.75 0 100 1.5.75.75 0 000-1.5zM3.5 3.25a.75.75 0 111.5 0 .75.75 0 01-1.5 0z" fill="#ffffff"/></svg>
  <text x="467" y="73" class="action">Branch</text>
  <rect x="522.0" y="62" width="103.0" height="16" rx="4" fill="#161b22" stroke="#30363d" stroke-width="1" />
  <text x="573.5" y="74" text-anchor="middle" class="badge">TrackerCredito</text>
  <text x="805" y="73" text-anchor="end" class="time">19H AGO</text>
  <text x="467" y="91" class="detail">&quot;Branch feature/vercel-supabase-deployment&quot;</text>
  <!-- Item Col 1 Row 1 -->
  <svg x="445" y="119" width="14" height="14" viewBox="0 0 16 16"><path fill-rule="evenodd" d="M10.5 7.75a2.5 2.5 0 11-5 0 2.5 2.5 0 015 0zm1.43.75a4.002 4.002 0 01-7.86 0H.75a.75.75 0 110-1.5h3.32a4.002 4.002 0 017.86 0h3.32a.75.75 0 110 1.5h-3.32z" fill="#ffffff"/></svg>
  <text x="467" y="131" class="action">Push</text>
  <rect x="507.0" y="120" width="148.5" height="16" rx="4" fill="#161b22" stroke="#30363d" stroke-width="1" />
  <text x="581.2" y="132" text-anchor="middle" class="badge">NuvioLatinoSetup:main</text>
  <text x="805" y="131" text-anchor="end" class="time">3D AGO</text>
  <text x="467" y="149" class="detail">&quot;merge: develop into main (icon color, step...&quot;</text>
  <!-- Item Col 1 Row 2 -->
  <svg x="445" y="177" width="14" height="14" viewBox="0 0 16 16"><path fill-rule="evenodd" d="M10.5 7.75a2.5 2.5 0 11-5 0 2.5 2.5 0 015 0zm1.43.75a4.002 4.002 0 01-7.86 0H.75a.75.75 0 110-1.5h3.32a4.002 4.002 0 017.86 0h3.32a.75.75 0 110 1.5h-3.32z" fill="#ffffff"/></svg>
  <text x="467" y="189" class="action">Push</text>
  <rect x="507.0" y="178" width="168.0" height="16" rx="4" fill="#161b22" stroke="#30363d" stroke-width="1" />
  <text x="591.0" y="190" text-anchor="middle" class="badge">NuvioLatinoSetup:develop</text>
  <text x="805" y="189" text-anchor="end" class="time">3D AGO</text>
  <text x="467" y="207" class="detail">&quot;merge: bugfix/summary-icon-color-step1-eye-...&quot;</text>
</svg>